<svg id="egeqIc0wxjY1" xmlns="http://www.w3.org/2000/svg" xmlns:xlink="http://www.w3.org/1999/xlink" viewBox="0 0 1079 895" shape-rendering="geometricPrecision" text-rendering="geometricPrecision">
<style><![CDATA[
#egeqIc0wxjY2_to {animation: egeqIc0wxjY2_to__to 10000ms linear infinite normal forwards}@keyframes egeqIc0wxjY2_to__to { 0% {offset-distance: 0%;animation-timing-function: cubic-bezier(0.42,0,1,1)} 100% {offset-distance: 100%}} #egeqIc0wxjY2_tr {animation: egeqIc0wxjY2_tr__tr 10000ms linear infinite normal forwards}@keyframes egeqIc0wxjY2_tr__tr { 0% {transform: rotate(-10deg);animation-timing-function: cubic-bezier(0,0,0.58,1)} 100% {transform: rotate(130deg)}} #egeqIc0wxjY2 {animation: egeqIc0wxjY2_c_o 10000ms linear infinite normal forwards}@keyframes egeqIc0wxjY2_c_o { 0% {opacity: 0;animation-timing-function: cubic-bezier(0.47,0,0.745,0.715)} 10% {opacity: 1} 90% {opacity: 1;animation-timing-function: cubic-bezier(0.39,0.575,0.565,1)} 100% {opacity: 0}} #egeqIc0wxjY5_tr {animation: egeqIc0wxjY5_tr__tr 10000ms linear infinite normal forwards}@keyframes egeqIc0wxjY5_tr__tr { 0% {transform: translate(356.5px,89px) rotate(0deg);animation-timing-function: cubic-bezier(0.25,1,0.25,1)} 100% {transform: translate(356.5px,89px) rotate(360deg)}} #egeqIc0wxjY5 {animation: egeqIc0wxjY5_c_o 10000ms linear infinite normal forwards}@keyframes egeqIc0wxjY5_c_o { 0% {opacity: 0} 19% {opacity: 0;animation-timing-function: cubic-bezier(0.55,0.085,0.68,0.53)} 39% {opacity: 0.846;animation-timing-function: cubic-bezier(0.55,0.085,0.68,0.53)} 59% {opacity: 0} 100% {opacity: 0}} #egeqIc0wxjY6_tr {animation: egeqIc0wxjY6_tr__tr 10000ms linear infinite normal forwards}@keyframes egeqIc0wxjY6_tr__tr { 0% {transform: translate(755.5px,101px) rotate(0deg);animation-timing-function: cubic-bezier(0.25,1,0.25,1)} 100% {transform: translate(755.5px,101px) rotate(360deg)}} #egeqIc0wxjY6 {animation: egeqIc0wxjY6_c_o 10000ms linear infinite normal forwards}@keyframes egeqIc0wxjY6_c_o { 0% {opacity: 0} 10% {opacity: 0;animation-timing-function: cubic-bezier(0.55,0.085,0.68,0.53)} 30% {opacity: 0.846;animation-timing-function: cubic-bezier(0.55,0.085,0.68,0.53)} 50% {opacity: 0} 100% {opacity: 0}} #egeqIc0wxjY9_tr {animation: egeqIc0wxjY9_tr__tr 10000ms linear infinite normal forwards}@keyframes egeqIc0wxjY9_tr__tr { 0% {transform: translate(244.5px,207.5px) rotate(0deg);animation-timing-function: cubic-bezier(0.25,1,0.25,1)} 100% {transform: translate(244.5px,207.5px) rotate(360deg)}} #egeqIc0wxjY9 {animation: egeqIc0wxjY9_c_o 10000ms linear infinite normal forwards}@keyframes egeqIc0wxjY9_c_o { 0% {opacity: 0} 49% {opacity: 0;animation-timing-function: cubic-bezier(0.55,0.085,0.68,0.53)} 69% {opacity: 0.87;animation-timing-function: cubic-bezier(0.55,0.085,0.68,0.53)} 89% {opacity: 0} 100% {opacity: 0}} #egeqIc0wxjY19_tr {animation: egeqIc0wxjY19_tr__tr 10000ms linear infinite normal forwards}@keyframes egeqIc0wxjY19_tr__tr { 0% {transform: translate(802.5px,284px) rotate(0deg);animation-timing-function: cubic-bezier(0.25,1,0.25,1)} 100% {transform: translate(802.5px,284px) rotate(360deg)}} #egeqIc0wxjY19 {animation: egeqIc0wxjY19_c_o 10000ms linear infinite normal forwards}@keyframes egeqIc0wxjY19_c_o { 0% {opacity: 0} 40% {opacity: 0;animation-timing-function: cubic-bezier(0.55,0.085,0.68,0.53)} 60% {opacity: 0.849;animation-timing-function: cubic-bezier(0.55,0.085,0.68,0.53)} 80% {opacity: 0} 100% {opacity: 0}}
]]></style>
<g id="egeqIc0wxjY2_to" style="offset-path:path('M355.5,331L695.5,331');offset-rotate:auto"><g id="egeqIc0wxjY2_tr" transform="rotate(-10)"><path id="egeqIc0wxjY2" d="M166.5,33.5c31.456,1.9537,45.956,18.6203,43.5,50-8.514,24.68-25.681,34.513-51.5,29.5-17.787-6.632-27.454-19.4649-29-38.5c2.273-22.9316,14.606-36.5982,37-41Z" transform="translate(-410.753497,-221.635394)" opacity="0" clip-rule="evenodd" fill="#eaedf5" fill-rule="evenodd"/></g></g><path d="M512.5,-0.5c1.667,0,3.333,0,5,0c3.601.991156,7.268,2.15782,11,3.5c7.5,4.91779,15.167,9.5845,23,14c2.758,7.44,5.425,14.94,8,22.5c2.311-11.7237,4.811-23.3904,7.5-35c2,9.9974,4,19.9974,6,30c5.385-6.3838,10.385-13.0505,15-20-2.353,12.7451-5.02,25.4118-8,38c5-6,10-12,15-18c1.113-1.8293,2.613-2.6626,4.5-2.5-5.707,13.5802-10.707,27.4135-15,41.5-18.336-4.8099-37.002-7.4765-56-8c.166-5.6764-.001-11.3431-.5-17-3.627-6.4204-7.127-12.9204-10.5-19.5c1.408-.3152,2.741.0181,4,1c7.746,5.6231,15.579,11.1231,23.5,16.5.388-7.6847.055-15.3514-1-23-10.685-7.8635-21.185-15.86349-31.5-24Z" opacity="0.947" clip-rule="evenodd" fill="#fed15b" fill-rule="evenodd"/><path d="M528.5,65.5c18.998.5235,37.664,3.1901,56,8c1.668,1.84,3.168,3.84,4.5,6c2.567,18.7186,9.234,35.719,20,51c13.597,14.601,28.097,28.101,43.5,40.5c5.678,3.841,11.678,7.174,18,10c11.809,4.408,23.476,9.075,35,14c6.795,5.735,9.461,12.902,8,21.5-9.386-7.417-20.053-12.251-32-14.5-13.648-2.581-27.315-5.081-41-7.5-.916.043-1.583.376-2,1-4.369-1.812-9.036-2.979-14-3.5-15.971-2.163-31.971-3.997-48-5.5-17.921,1.485-35.255,5.152-52,11-4,.667-8,1.333-12,2c.237,1.291-.096,2.291-1,3-.291-1.149-1.124-1.816-2.5-2-3.163.75-6.33,1.416-9.5,2-8.493,1.163-16.827,2.497-25,4-14.321.742-28.654,1.075-43,1-10.48-1.799-21.147-3.299-32-4.5-8.756-1.864-17.422-4.031-26-6.5c5.569-11.81,14.569-19.977,27-24.5c16.662-6.221,32.995-13.221,49-21c8.561-5.109,16.561-10.942,24-17.5.397,1.025,1.063,1.192,2,.5c9.162-6.415,18.495-12.582,28-18.5c2.266,3.534,4.266,7.2,6,11c2.076,6.213,4.742,12.213,8,18c5.255-9.51,10.255-19.176,15-29c9.551-2.103,19.218-3.603,29-4.5-9.333-4.333-18.667-8.667-28-13-2.536-2.705-5.203-5.205-8-7.5-3.333-4-7-7.6667-11-11c1.052-8.3856,5.719-13.0523,14-14Z" opacity="0.994" clip-rule="evenodd" fill="#60588d" fill-rule="evenodd"/><g id="egeqIc0wxjY5_tr" transform="translate(356.5,89) rotate(0)"><path id="egeqIc0wxjY5" d="M358.5,71.5c1.617,4.0396,2.45,8.3729,2.5,13c4.42,1.5195,8.92,2.8529,13.5,4-4.545,1.2603-9.045,2.5936-13.5,4-.978,4.723-2.144,9.39-3.5,14-1.242-5.367-2.575-10.7001-4-16-4.948-1.654-9.948-3.154-15-4.5c5.364-.1705,10.698-.6705,16-1.5c1.742-4.2254,3.076-8.5587,4-13Z" transform="translate(-356.5,-89)" opacity="0" clip-rule="evenodd" fill="#ffd15a" fill-rule="evenodd"/></g><g id="egeqIc0wxjY6_tr" transform="translate(755.5,101) rotate(0)"><path id="egeqIc0wxjY6" d="M758.5,74.5c1.287,1.3714,1.953,3.2047,2,5.5.427,4.8408.927,9.6742,1.5,14.5c6.743,1.7493,13.577,3.2493,20.5,4.5-6.828,2.291-13.828,4.124-21,5.5-1.027,7.803-2.694,15.47-5,23-1.546-8.318-3.046-16.651-4.5-25-7.793-2.407-15.627-4.7408-23.5-7c8-.6667,16-1.3333,24-2c2.408-6.2239,4.408-12.5572,6-19Z" transform="translate(-755.5,-101)" opacity="0" clip-rule="evenodd" fill="#ffd15a" fill-rule="evenodd"/></g><path d="M514.5,79.5c4,3.3333,7.667,7,11,11-5.528,11.917-10.861,23.917-16,36-1.734-3.8-3.734-7.466-6-11-9.505,5.918-18.838,12.085-28,18.5-.937.692-1.603.525-2-.5c16.738-15.728,30.404-33.7285,41-54Z" opacity="0.991" clip-rule="evenodd" fill="#2c264e" fill-rule="evenodd"/><path d="M525.5,90.5c2.797,2.295,5.464,4.795,8,7.5c9.333,4.333,18.667,8.667,28,13-9.782.897-19.449,2.397-29,4.5-4.745,9.824-9.745,19.49-15,29-3.258-5.787-5.924-11.787-8-18c5.139-12.083,10.472-24.083,16-36Z" clip-rule="evenodd" fill="#face5b" fill-rule="evenodd"/><g id="egeqIc0wxjY9_tr" transform="translate(244.5,207.5) rotate(0)"><path id="egeqIc0wxjY9" d="M257.5,180.5c.722.418,1.222,1.084,1.5,2c.651,6.327,1.151,12.66,1.5,19c7.131.926,14.131,2.426,21,4.5-6.91,1.978-13.91,3.478-21,4.5-1.014,8.244-2.847,16.244-5.5,24-1.494-8.631-2.661-17.298-3.5-26-8.08-1.853-16.08-4.02-24-6.5c7.993-.5,15.993-.666,24-.5c2-7,4-14,6-21Z" transform="translate(-254.5,-207.5)" opacity="0" clip-rule="evenodd" fill="#ffd15a" fill-rule="evenodd"/></g><path d="M638.5,195.5c7.67,16.03,9.17,32.697,4.5,50-1.125,7.205-2.959,14.205-5.5,21-1.318,3.832-3.652,6.999-7,9.5-7.333,4-14.667,8-22,12-1.541,1.371-2.875,2.871-4,4.5-12.556,4.698-25.556,7.531-39,8.5-7.993.5-15.993.666-24,.5-16.072-.771-32.072-2.271-48-4.5-3.393-.798-6.726-1.798-10-3-5.749-2.301-10.749-5.467-15-9.5-6.767-3.554-13.434-7.387-20-11.5-6.883-6.272-11.883-13.772-15-22.5-2.255-9.364-3.588-18.864-4-28.5-.154-4.998.513-9.832,2-14.5c14.346.075,28.679-.258,43-1c3.174,11.003,10.507,16.503,22,16.5c5.333.667,10.667.667,16,0c6.123-3.789,11.29-8.622,15.5-14.5-.002-4.012-1.169-7.679-3.5-11c16.745-5.848,34.079-9.515,52-11c16.029,1.503,32.029,3.337,48,5.5c4.964.521,9.631,1.688,14,3.5Z" opacity="0.998" clip-rule="evenodd" fill="#fd6c5b" fill-rule="evenodd"/><path d="M586.5,190.5c6.371-.012,12.704.488,19,1.5c3.062,1.061,5.562,2.894,7.5,5.5c3.385,6.102,6.218,12.435,8.5,19-3.361,5.871-7.694,11.038-13,15.5-7.494,2.826-15.161,3.159-23,1-3.259-1.211-6.092-3.044-8.5-5.5-2-4-4-8-6-12-.667-1.667-.667-3.333,0-5c3.213-8.356,8.38-15.023,15.5-20Z" clip-rule="evenodd" fill="#fefbfb" fill-rule="evenodd"/><path d="M713.5,216.5c-7.434,11.935-17.101,21.768-29,29.5-15.248,7.912-30.915,14.745-47,20.5c2.541-6.795,4.375-13.795,5.5-21c4.67-17.303,3.17-33.97-4.5-50c.417-.624,1.084-.957,2-1c13.685,2.419,27.352,4.919,41,7.5c11.947,2.249,22.614,7.083,32,14.5Z" opacity="0.992" clip-rule="evenodd" fill="#2b254e" fill-rule="evenodd"/><path d="M373.5,196.5c8.578,2.469,17.244,4.636,26,6.5c10.853,1.201,21.52,2.701,32,4.5-1.487,4.668-2.154,9.502-2,14.5.412,9.636,1.745,19.136,4,28.5-20.941-5.714-38.108-17.047-51.5-34-3.681-6.356-6.514-13.022-8.5-20Z" opacity="0.991" clip-rule="evenodd" fill="#2b254e" fill-rule="evenodd"/><path d="M524.5,197.5c2.331,3.321,3.498,6.988,3.5,11-4.21,5.878-9.377,10.711-15.5,14.5-5.333.667-10.667.667-16,0-11.493.003-18.826-5.497-22-16.5c8.173-1.503,16.507-2.837,25-4c1.976,4.815,5.309,5.981,10,3.5c1.323-.816,1.989-1.983,2-3.5.904-.709,1.237-1.709,1-3c4-.667,8-1.333,12-2Z" clip-rule="evenodd" fill="#fdfafb" fill-rule="evenodd"/><path d="M554.5,197.5c1,0,2,0,3,0c2.415,13.903,4.081,27.903,5,42-8.071.097-16.071-.57-24-2c4.776-13.552,10.109-26.886,16-40Z" clip-rule="evenodd" fill="#31264e" fill-rule="evenodd"/><path d="M511.5,202.5c-.011,1.517-.677,2.684-2,3.5-4.691,2.481-8.024,1.315-10-3.5c3.17-.584,6.337-1.25,9.5-2c1.376.184,2.209.851,2.5,2Z" clip-rule="evenodd" fill="#352e56" fill-rule="evenodd"/><path d="M595.5,204.5c7.38-.457,10.213,2.876,8.5,10-3.912,5.201-7.912,5.201-12,0-1.244-4.309-.077-7.642,3.5-10Z" clip-rule="evenodd" fill="#312b53" fill-rule="evenodd"/><path d="M470.5,239.5c6.487-1.154,13.154-1.321,20-.5c5.595,4.61,11.429,8.777,17.5,12.5c6.474-1.936,12.807-4.269,19-7c5.614,4.219,11.114,8.553,16.5,13c7.588-3.196,15.254-6.196,23-9c4.356,2.845,8.856,5.511,13.5,8c4.232-2.2,8.398-4.533,12.5-7c8.321,2.166,16.654,4.332,25,6.5-8.337.616-16.671,1.282-25,2-5.762,4.295-11.596,8.462-17.5,12.5-3.95-4.114-8.117-8.114-12.5-12-7.333,3.667-14.667,7.333-22,11-5.35-5.185-10.85-10.185-16.5-15-4.751,2.959-9.584,5.793-14.5,8.5-1,.667-2,.667-3,0-5.624-5.803-11.624-11.136-18-16-5.907-2.789-11.907-5.289-18-7.5Z" clip-rule="evenodd" fill="#32264e" fill-rule="evenodd"/><g id="egeqIc0wxjY19_tr" transform="translate(802.5,284) rotate(0)"><path id="egeqIc0wxjY19" d="M805.5,263.5c1.051,5.146,1.718,10.479,2,16c5.52.603,10.853,1.769,16,3.5-5.52.935-10.853,2.435-16,4.5-1.191,5.806-2.691,11.473-4.5,17-1.162-6.635-1.995-13.301-2.5-20-6.39-1.184-12.723-2.684-19-4.5c6.325-.5,12.658-.666,19-.5c1.268-5.47,2.935-10.804,5-16Z" transform="translate(-802.5,-284)" opacity="0" clip-rule="evenodd" fill="#ffd15a" fill-rule="evenodd"/></g><path d="M468.5,284.5c4.251,4.033,9.251,7.199,15,9.5c3.274,1.202,6.607,2.202,10,3c15.928,2.229,31.928,3.729,48,4.5.763.768,1.763,1.268,3,1.5-13.21,2.263-23.877,8.597-32,19c8.51.171,16.843.671,25,1.5-9,0-18,0-27,0-14.617-3.264-28.617-8.43-42-15.5-5.443-3.315-7.443-8.149-6-14.5.432-4.09,2.432-7.09,6-9Z" opacity="0.999" clip-rule="evenodd" fill="#837ba8" fill-rule="evenodd"/><path d="M604.5,292.5c.622,1.127,1.455,2.127,2.5,3c.676,5.371.509,10.704-.5,16-9.851,7.173-20.851,11.173-33,12c3.394,57.026,7.06,114.026,11,171-1.667,0-3.333,0-5,0c0-4.667,0-9.333,0-14-3.018.204-6.018.537-9,1c.498,4.652.831,9.319,1,14-1.667,0-3.333,0-5,0c0-4.667,0-9.333,0-14-3.018.204-6.018.537-9,1c.814,4.619,1.147,9.286,1,14-1.667,0-3.333,0-5,0c0-4.333,0-8.667,0-13-3,0-6,0-9,0c0,4.667,0,9.333,0,14-1.333,0-2.667,0-4,0-.046-26.671-.379-53.338-1-80-.992-31.325-1.659-62.658-2-94-8.157-.829-16.49-1.329-25-1.5c8.123-10.403,18.79-16.737,32-19-1.237-.232-2.237-.732-3-1.5c8.007.166,16.007,0,24-.5c13.444-.969,26.444-3.802,39-8.5Z" clip-rule="evenodd" fill="#60578d" fill-rule="evenodd"/><g transform="matrix(.997053-.076719 0.076719 0.997053-29.159986 19.944115)"><path d="M250.5,389.5c-1.813,15.69-3.813,31.357-6,47-.79,1.109-1.29,2.442-1.5,4-1.011.837-2.178,1.17-3.5,1c0-1.667,0-3.333,0-5c2-15.667,4-31.333,6-47" opacity="0.994" clip-rule="evenodd" fill="#2b254e" fill-rule="evenodd"/><path d="M239.5,436.5c0,1.667,0,3.333,0,5c1.322.17,2.489-.163,3.5-1c.21-1.558.71-2.891,1.5-4c5.731.749,11.398,1.915,17,3.5c1.616.615,2.949,1.615,4,3-.228.399-.562.565-1,.5-15.821,3.048-31.487,2.215-47-2.5-.873-1.045-1.873-1.878-3-2.5c1.526-1.63,3.526-2.463,6-2.5c6.37-.706,12.703-.539,19,.5Z" opacity="0.936" clip-rule="evenodd" fill="#60588e" fill-rule="evenodd"/><path d="M214.5,438.5c1.127.622,2.127,1.455,3,2.5c15.513,4.715,31.179,5.548,47,2.5-1.327,5.814-3.16,11.481-5.5,17-.167,2.167-.333,4.333-.5,6.5c1.037,12.16,1.537,24.327,1.5,36.5-10.978,3.378-22.145,3.878-33.5,1.5-6.092-.617-11.925-2.117-17.5-4.5.132-7.327,1.298-14.494,3.5-21.5-1.213-13.664-.547-27.164,2-40.5Z" opacity="0.994" clip-rule="evenodd" fill="#847daa" fill-rule="evenodd"/><path d="M239.5,461.5c2.706.075,5.373.408,8,1-.532,5.652-.865,11.319-1,17c1.667,0,3.333,0,5,0c0,2,0,4,0,6-2,0-4,0-6,0c0,1.333,0,2.667,0,4-2.667,0-5.333,0-8,0c.359-2.266-.308-4.099-2-5.5-5.68-.445-11.346-.945-17-1.5-.299-2.104.034-4.104,1-6c6.735-5.021,13.401-10.021,20-15Z" clip-rule="evenodd" fill="#f6f5f9" fill-rule="evenodd"/><path d="M237.5,470.5c.977,2.787,1.31,5.787,1,9-3.747.108-7.414-.392-11-1.5c3.58-2.277,6.914-4.777,10-7.5Z" clip-rule="evenodd" fill="#8982ad" fill-rule="evenodd"/></g><path d="M245.5,389.5c-26.333,0-52.667,0-79,0c0-8.667,0-17.333,0-26c0-.333,0-.667,0-1c.992-7.482,1.325-15.148,1-23c.321-5.526-.012-10.86-1-16c0-3.667,0-7.333,0-11c76.25-5.062,152.584-8.562,229-10.5c22.575-1.297,44.908-4.13,67-8.5-1.443,6.351.557,11.185,6,14.5c13.383,7.07,27.383,12.236,42,15.5-10.73,29.857-21.064,59.857-31,90-20.905,58.045-41.238,116.378-61,175-5.595-1.386-11.262-2.386-17-3-8.688-1.871-17.354-3.871-26-6-1.351-3.751-2.851-7.418-4.5-11-3.167,2.5-6.333,5-9.5,7.5-4.021-.035-8.021-.535-12-1.5.166-6.675,0-13.342-.5-20-5.5,5.5-11,11-16.5,16.5-8.763-.46-17.43-1.793-26-4c37.216-65.945,73.716-132.112,109.5-198.5-20.267,9.546-41.434,16.38-63.5,20.5-33.998.5-67.998.667-102,.5" opacity="0.994" clip-rule="evenodd" fill="#2b254e" fill-rule="evenodd"/><path d="M166.5,323.5c0,5,0,10,0,15-29.171-.331-58.171.002-87,1-6.6096,4.468-6.6096,8.968,0,13.5c28.998.5,57.998.667,87,.5c0,3,0,6,0,9c0,.333,0,.667,0,1-39.576,9.728-78.9096,20.394-118,32-1.021-.502-1.1877-1.168-.5-2c8.1667-10.167,16.3333-20.333,24.5-30.5-14.4512,1.825-28.7845,4.158-43,7c12.1681-7.585,24.5015-14.918,37-22-10.6667-.333-21.3333-.667-32-1-11.6949-7.511-23.3616-15.011-35-22.5c0-.333,0-.667,0-1c33.199,1.894,66.199,5.06,99,9.5-18.8329-11.918-37.8329-23.584-57-35c41.7325,7.913,83.399,16.413,125,25.5Z" opacity="0.962" clip-rule="evenodd" fill="#fed15a" fill-rule="evenodd"/><path d="M830,424.5c-22.428,1.296-44.928,2.296-67.5,3" opacity="0.991" clip-rule="evenodd" fill="#2b254e" fill-rule="evenodd"/><path d="M757.5,427.5c-15.082,1.739-30.082,1.239-45-1.5-34.598-9.816-69.264-19.316-104-28.5c20.125,58.373,40.458,116.707,61,175-7.856,2.188-15.856,3.021-24,2.5-3.182-3.349-6.515-6.516-10-9.5-1.908,3.564-3.908,7.064-6,10.5-9.341,1.902-18.674,3.735-28,5.5-3.657-5.304-7.323-10.638-11-16-3.713,5.589-7.046,11.422-10,17.5-14.674,1.871-29.341,3.704-44,5.5c1.253-30.34,2.586-60.673,4-91c1.333,0,2.667,0,4,0c0-4.667,0-9.333,0-14c3,0,6,0,9,0c0,4.333,0,8.667,0,13c1.667,0,3.333,0,5,0c.147-4.714-.186-9.381-1-14c2.982-.463,5.982-.796,9-1c0,4.667,0,9.333,0,14c1.667,0,3.333,0,5,0-.169-4.681-.502-9.348-1-14c2.982-.463,5.982-.796,9-1c0,4.667,0,9.333,0,14c1.667,0,3.333,0,5,0-3.94-56.974-7.606-113.974-11-171c12.149-.827,23.149-4.827,33-12c21.614,12.709,44.614,22.209,69,28.5c8.283,1.41,16.617,2.41,25,3c69.405,2.064,138.738.564,208-4.5-.33,16.509.004,32.842,1,49c0,11.667,0,23.333,0,35-24.67.543-49.337,1.21-74,2" opacity="0.991" clip-rule="evenodd" fill="#2b254e" fill-rule="evenodd"/><g transform="translate(0 0.000001)"><path d="M835.5,424.5c3.591,18.287,6.924,36.62,10,55c0,1.667,0,3.333,0,5-2.9.092-4.567-1.241-5-4-3.047-18.737-6.547-37.404-10.5-56" opacity="0.991" clip-rule="evenodd" fill="#2b254e" fill-rule="evenodd"/><path d="M869.5,479.5c-1.249,1.636-2.916,2.803-5,3.5-14.61,5.393-29.61,7.227-45,5.5c1.323-2.186,3.323-3.686,6-4.5c4.902-1.642,9.902-2.809,15-3.5.433,2.759,2.1,4.092,5,4c0-1.667,0-3.333,0-5c5.108-.951,10.274-1.618,15.5-2c3.15-.14,5.983.527,8.5,2Z" opacity="0.939" clip-rule="evenodd" fill="#60588e" fill-rule="evenodd"/><path d="M869.5,479.5c4.372,12.647,5.872,25.647,4.5,39c2.167,6.5,4.333,13,6.5,19.5-1.855,2.943-4.521,4.943-8,6-13.615,4.785-27.615,6.785-42,6-.5-.5-1-1-1.5-1.5-.333-6.333-.667-12.667-1-19-3.562-7.791-6.562-15.791-9-24-.818-5.849-.652-11.515.5-17c15.39,1.727,30.39-.107,45-5.5c2.084-.697,3.751-1.864,5-3.5Z" opacity="0.996" clip-rule="evenodd" fill="#847daa" fill-rule="evenodd"/><path d="M850.5,503.5c2.424-.308,4.757.026,7,1c1.081,4.974,2.081,9.974,3,15c1.909-.848,3.909-1.182,6-1c0,2,0,4,0,6-3.602.006-5.602,1.84-6,5.5-1.973.495-3.973.662-6,.5c0-1.333,0-2.667,0-4-6.604,1.372-13.271,2.372-20,3-.163-2.357.003-4.69.5-7c5.175-6.364,10.342-12.697,15.5-19Z" clip-rule="evenodd" fill="#f9f9fb" fill-rule="evenodd"/><path d="M850.5,512.5c1.675,3.007,2.341,6.34,2,10-3.366.288-6.7.454-10,.5c2.883-3.376,5.549-6.876,8-10.5Z" clip-rule="evenodd" fill="#8982ad" fill-rule="evenodd"/></g><g transform="translate(.000001 0.000001)"><path d="M762.5,427.5c-1.449,13.041-3.115,26.041-5,39-.801,1.542-1.134,3.208-1,5-3.41.116-4.744-1.55-4-5c1.594-13.009,3.26-26.009,5-39" opacity="0.991" clip-rule="evenodd" fill="#2b254e" fill-rule="evenodd"/><path d="M752.5,466.5c-.744,3.45.59,5.116,4,5-.134-1.792.199-3.458,1-5c6.398.748,12.731,1.915,19,3.5c1.616.615,2.949,1.615,4,3-.228.399-.562.565-1,.5-15.412,2.81-30.746,2.31-46-1.5-1.824-.66-3.157-1.827-4-3.5.763-.768,1.763-1.268,3-1.5c6.658-.5,13.325-.666,20-.5Z" opacity="0.952" clip-rule="evenodd" fill="#60588e" fill-rule="evenodd"/><path d="M729.5,468.5c.843,1.673,2.176,2.84,4,3.5c15.254,3.81,30.588,4.31,46,1.5-2.191,11.457-4.191,22.957-6,34.5.672,7.71,1.672,15.377,3,23-.333.833-.667,1.667-1,2.5-8.804,2.697-17.804,3.53-27,2.5-6.732-.566-13.398-1.566-20-3-1.832-.748-3.499-1.748-5-3c1.2-4.391,2.034-8.891,2.5-13.5.117-16.229,1.284-32.229,3.5-48Z" opacity="0.995" clip-rule="evenodd" fill="#847daa" fill-rule="evenodd"/><path d="M746.5,492.5c14.677-2.475,21.511,3.525,20.5,18-1.061,3.062-2.894,5.562-5.5,7.5-5.597,1.456-11.263,1.789-17,1-2.602-.883-4.769-2.383-6.5-4.5-2.443-6.523-1.943-12.689,1.5-18.5c2.213-1.616,4.547-2.783,7-3.5Z" clip-rule="evenodd" fill="#faf9fb" fill-rule="evenodd"/><path d="M747.5,498.5c9.208-1.613,13.375,2.054,12.5,11-.785,1.786-1.951,3.286-3.5,4.5-9.601,2.715-14.101-.785-13.5-10.5c1.025-2.187,2.525-3.854,4.5-5Z" clip-rule="evenodd" fill="#8780ac" fill-rule="evenodd"/></g><path d="M510.5,323.5c9,0,18,0,27,0c.341,31.342,1.008,62.675,2,94-20.027-1.038-40.027-2.372-60-4c9.936-30.143,20.27-60.143,31-90Z" clip-rule="evenodd" fill="#fdd05b" fill-rule="evenodd"/><path d="M1078.5,378.5c0,.333,0,.667,0,1-12.44-2.692-24.77-5.859-37-9.5-16.33-.667-32.67-.667-49,0c17.54,8.289,34.88,16.956,52,26-19.24-4.976-38.57-9.643-58-14c13.54,13.044,27.21,25.878,41,38.5-.33.333-.67.667-1,1-23.67-11.167-47.333-22.333-71-33.5-15.33-.5-30.663-.667-46-.5c0-11.333,0-22.667,0-34c29.002.167,58.002,0,87-.5c5.79-3.532,6.46-7.865,2-13-11.841-.169-23.507-.669-35-1.5c23.246-5.416,46.58-10.249,70-14.5-9.83,7.005-19.5,14.172-29,21.5c11.61,2.713,23.28,5.213,35,7.5c12.72,9.018,25.72,17.518,39,25.5Z" opacity="0.961" clip-rule="evenodd" fill="#fed15b" fill-rule="evenodd"/><path d="M166.5,323.5c.988,5.14,1.321,10.474,1,16-29.333,0-58.667,0-88,0c28.829-.998,57.829-1.331,87-1c0-5,0-10,0-15Z" clip-rule="evenodd" fill="#baa07b" fill-rule="evenodd"/><path d="M79.5,339.5c29.333,0,58.667,0,88,0c.325,7.852-.008,15.518-1,23c0-3,0-6,0-9-29.002.167-58.002,0-87-.5-6.6096-4.532-6.6096-9.032,0-13.5Z" clip-rule="evenodd" fill="#877fa7" fill-rule="evenodd"/><path d="M908.5,338.5c18.333,0,36.667,0,55,0c11.493.831,23.159,1.331,35,1.5c4.46,5.135,3.79,9.468-2,13-28.998.5-57.998.667-87,.5c0,11.333,0,22.667,0,34-.996-16.158-1.33-32.491-1-49Z" clip-rule="evenodd" fill="#877ea5" fill-rule="evenodd"/><path d="M479.5,413.5c19.973,1.628,39.973,2.962,60,4c.621,26.662.954,53.329,1,80-1.414,30.327-2.747,60.66-4,91c14.659-1.796,29.326-3.629,44-5.5c2.954-6.078,6.287-11.911,10-17.5c3.677,5.362,7.343,10.696,11,16-2.691,28.718-5.858,57.385-9.5,86-3.147,13.971-9.647,25.971-19.5,36-14.267,3.867-28.601,3.867-43,0-.61-1.934-1.61-3.601-3-5-4.72-11.215-7.72-22.881-9-35c0-49.333,0-98.667,0-148-2.885-.306-5.552.027-8,1-.801,1.542-1.134,3.208-1,5-4.667,12-9.333,24-14,36-9.769-6.392-19.769-12.559-30-18.5-1.259-.982-2.592-1.315-4-1c4.088,20.029,7.255,40.195,9.5,60.5-11.348,11.181-22.514,22.514-33.5,34c.333.333.667.667,1,1c10.18-2.769,20.513-4.769,31-6-5.704,18.079-12.537,35.746-20.5,53-5.594,9.755-12.761,18.088-21.5,25-12.647.886-25.313-.614-38-4.5-4.024-1.674-7.691-3.841-11-6.5-3.255-12.179-3.755-24.512-1.5-37c8.011-24.202,16.511-48.202,25.5-72c5.738.614,11.405,1.614,17,3c19.762-58.622,40.095-116.955,61-175Z" opacity="0.996" clip-rule="evenodd" fill="#fe6d5a" fill-rule="evenodd"/><path d="M509.5,516.5c2.333,0,4.667,0,7,0-.332,49.17.001,98.17,1,147c1.28,12.119,4.28,23.785,9,35c0,6.333,0,12.667,0,19-5.382,29.579-11.382,58.912-18,88c0-94.667,0-189.333,0-284-.134-1.792.199-3.458,1-5Z" opacity="0.995" clip-rule="evenodd" fill="#2b254e" fill-rule="evenodd"/><path d="M509.5,516.5c2.448-.973,5.115-1.306,8-1c0,49.333,0,98.667,0,148-.999-48.83-1.332-97.83-1-147-2.333,0-4.667,0-7,0Z" clip-rule="evenodd" fill="#623751" fill-rule="evenodd"/><path d="M494.5,557.5c-8.099,23.64-16.766,46.973-26,70-10.487,1.231-20.82,3.231-31,6-.333-.333-.667-.667-1-1c10.986-11.486,22.152-22.819,33.5-34-2.245-20.305-5.412-40.471-9.5-60.5c1.408-.315,2.741.018,4,1c10.231,5.941,20.231,12.108,30,18.5Z" opacity="0.981" clip-rule="evenodd" fill="#ffd15a" fill-rule="evenodd"/><path d="M377.5,694.5c3.309,2.659,6.976,4.826,11,6.5c12.687,3.886,25.353,5.386,38,4.5-2.968,29.379-6.301,58.712-10,88-2.743-3.154-5.243-6.488-7.5-10-1.625-9.952-2.958-19.952-4-30-10.667,13.333-21.333,26.667-32,40c3.49-14.96,6.823-29.96,10-45-5.667,11.333-11.333,22.667-17,34-5.979,7.48-12.145,14.813-18.5,22c1.212-9.229,3.045-18.562,5.5-28c5.294-12.559,9.96-25.225,14-38-4.21,7.925-9.043,15.425-14.5,22.5-6.329,3.007-12.663,5.674-19,8c14.893-24.72,29.56-49.554,44-74.5Z" opacity="0.96" clip-rule="evenodd" fill="#ffd15a" fill-rule="evenodd"/><path d="M529.5,703.5c14.399,3.867,28.733,3.867,43,0c7.501,33.007,15.168,66.007,23,99-.502,1.021-1.168,1.188-2,.5-3.595-3.05-7.095-6.216-10.5-9.5-4.008-8.701-8.008-17.368-12-26-.333,19-.667,38-1,57-2-4-4-8-6-12-3.814-24.7-7.814-49.367-12-74-1.428,17.993-2.761,35.993-4,54-2.363,11.978-4.529,23.978-6.5,36-1.624.14-2.79-.527-3.5-2-3.151-19.209-4.818-38.542-5-58-2.47,6.245-4.637,12.578-6.5,19-5.676,5.513-10.842,11.513-15.5,18-.671.752-1.504,1.086-2.5,1c0-.333,0-.667,0-1c6.618-29.088,12.618-58.421,18-88c1.49-4.442,2.49-9.109,3-14Z" opacity="0.967" clip-rule="evenodd" fill="#fed05a" fill-rule="evenodd"/><path d="M526.5,787.5c.167,33.668,0,67.335-.5,101-1.332,2.16-2.832,4.16-4.5,6-2.667,0-5.333,0-8,0-1.975-1.146-3.475-2.813-4.5-5-.5-27.665-.667-55.331-.5-83c.996.086,1.829-.248,2.5-1c4.658-6.487,9.824-12.487,15.5-18Z" opacity="0.968" clip-rule="evenodd" fill="#2b254e" fill-rule="evenodd"/></svg>
